<svg xmlns="http://www.w3.org/2000/svg" width="36" height="36" viewBox="0 0 36 36">
  <g id="그룹_182" data-name="그룹 182" transform="translate(-162 -62)">
    <rect id="사각형_247" data-name="사각형 247" width="36" height="36" transform="translate(162 62)" fill="#221814" opacity="0"/>
    <path id="Icon_ionic-ios-list-box" data-name="Icon ionic-ios-list-box" d="M3.375,4.876v15a1.5,1.5,0,0,0,1.5,1.5h15a1.5,1.5,0,0,0,1.5-1.5v-15a1.5,1.5,0,0,0-1.5-1.5h-15A1.5,1.5,0,0,0,3.375,4.876ZM7.238,17.728a.864.864,0,1,1,.744-.744A.861.861,0,0,1,7.238,17.728Zm0-4.5a.864.864,0,1,1,.744-.744A.861.861,0,0,1,7.238,13.229Zm0-4.5a.864.864,0,1,1,.744-.744A.861.861,0,0,1,7.238,8.73Zm10.7,8.747H10.154a.607.607,0,0,1-.606-.606h0a.607.607,0,0,1,.606-.606H17.94a.607.607,0,0,1,.606.606h0A.607.607,0,0,1,17.94,17.477Zm0-4.5H10.154a.607.607,0,0,1-.606-.606h0a.607.607,0,0,1,.606-.606H17.94a.607.607,0,0,1,.606.606h0A.607.607,0,0,1,17.94,12.978Zm0-4.5H10.154a.607.607,0,0,1-.606-.606h0a.607.607,0,0,1,.606-.606H17.94a.607.607,0,0,1,.606.606h0A.607.607,0,0,1,17.94,8.48Z" transform="translate(167.625 67.625)" fill="#5c5c5c"/>
  </g>
</svg>
