<svg xmlns="http://www.w3.org/2000/svg" width="36" height="36" viewBox="0 0 36 36">
  <g id="그룹_169" data-name="그룹 169" transform="translate(-114 -594)">
    <rect id="사각형_210" data-name="사각형 210" width="36" height="36" transform="translate(114 594)" fill="#221814" opacity="0"/>
    <g id="Icon_awesome-shopping-basket" data-name="Icon awesome-shopping-basket" transform="translate(123 601.75)" fill="none" stroke-linejoin="round">
      <path d="M18,8.821c0,1.045-.336,1.429-1.816,7.957A1.581,1.581,0,0,1,14.7,18.25H3.3a1.581,1.581,0,0,1-1.485-1.472C.336,10.25,0,9.866,0,8.821c0-.473.336-.857,2.854-.857L6.191,2.721a.922.922,0,0,1,1.4-.252,1.252,1.252,0,0,1,.221,1.6l-2.481,3.9h7.345l-2.481-3.9a1.252,1.252,0,0,1,.221-1.6.922.922,0,0,1,1.4.252l3.337,5.244C17.664,7.964,18,8.348,18,8.821Z" stroke="none"/>
      <path d="M 10.99917030334473 2.249799728393555 C 10.79522705078125 2.249799728393555 10.5893726348877 2.320892333984375 10.41184043884277 2.468471527099609 C 9.965189933776855 2.8397216796875 9.866410255432129 3.554500579833984 10.19124984741211 4.064922332763672 L 12.6725902557373 7.964151382446289 L 5.327409744262695 7.964151382446289 L 7.808750152587891 4.064962387084961 C 8.133589744567871 3.554500579833984 8.034839630126953 2.839752197265625 7.588190078735352 2.468511581420898 C 7.141500473022461 2.097263336181641 6.516119956970215 2.210151672363281 6.191280364990234 2.7205810546875 L 2.854410171508789 7.964151382446289 C 0.3357791900634766 7.964151382446289 0 8.347901344299316 0 8.821291923522949 C 0 9.866101264953613 0.3357791900634766 10.24985122680664 1.815999984741211 16.77795219421387 C 1.921590805053711 17.62248229980469 2.554470062255859 18.24980163574219 3.300939559936523 18.24980163574219 L 14.69906044006348 18.24980163574219 C 15.44552993774414 18.24980163574219 16.07840919494629 17.62248229980469 16.18396949768066 16.77795219421387 C 17.66422080993652 10.24985122680664 18 9.866101264953613 18 8.821291923522949 C 18 8.347901344299316 17.66422080993652 7.964151382446289 15.14558982849121 7.964151382446289 L 11.80875015258789 2.720541000366211 C 11.61304092407227 2.413000106811523 11.30826377868652 2.249799728393555 10.99917030334473 2.249799728393555 M 10.99917030334473 0.2498016357421875 C 12.00597953796387 0.2498016357421875 12.93939971923828 0.7720317840576172 13.49606990814209 1.646781921386719 L 16.26136589050293 5.992258071899414 C 17.11935615539551 6.04118537902832 17.7400951385498 6.155899047851562 18.2423095703125 6.351241111755371 C 19.34292030334473 6.779351234436035 20 7.702731132507324 20 8.821291923522949 C 20 9.632551193237305 19.86171913146973 10.16751194000244 19.52762985229492 11.45994186401367 C 19.26491355895996 12.47627258300781 18.82679748535156 14.17109870910645 18.15237808227539 17.14125823974609 C 18.02705955505371 17.94792366027832 17.65241241455078 18.6933650970459 17.08980941772461 19.25102233886719 C 16.44001960754395 19.89509201049805 15.59097003936768 20.24980163574219 14.69906044006348 20.24980163574219 L 3.300939559936523 20.24980163574219 C 2.409029960632324 20.24980163574219 1.559980392456055 19.89510154724121 0.9101905822753906 19.25103187561035 C 0.3476066589355469 18.69339370727539 -0.02705955505371094 17.94795608520508 -0.1523971557617188 17.14130020141602 C -0.8268070220947266 14.17110252380371 -1.264932632446289 12.47622299194336 -1.527639389038086 11.45990180969238 C -1.861719131469727 10.1674919128418 -2 9.632541656494141 -2 8.821291923522949 C -2 7.702731132507324 -1.342920303344727 6.779351234436035 -0.2423095703125 6.351241111755371 C 0.2599048614501953 6.155899047851562 0.8806476593017578 6.041184425354004 1.738639831542969 5.992257118225098 L 4.503959655761719 1.646821975708008 C 5.060629844665527 0.7721309661865234 5.993980407714844 0.2499217987060547 7.000709533691406 0.2498512268066406 C 7.675760269165039 0.2497806549072266 8.338399887084961 0.4914608001708984 8.866510391235352 0.9303722381591797 C 8.912240028381348 0.9683799743652344 8.956716537475586 1.007593154907227 8.999988555908203 1.048030853271484 C 9.043222427368164 1.007633209228516 9.087734222412109 0.9683837890625 9.133419990539551 0.9304122924804688 C 9.661350250244141 0.4915409088134766 10.32398986816406 0.2498016357421875 10.99917030334473 0.2498016357421875 Z" stroke="none" fill="#221814"/>
    </g>
  </g>
</svg>
