<svg xmlns="http://www.w3.org/2000/svg" width="36" height="36" viewBox="0 0 36 36">
  <g id="그룹_166" data-name="그룹 166" transform="translate(-269 -594)">
    <rect id="사각형_210" data-name="사각형 210" width="36" height="36" transform="translate(269 594)" fill="#221814" opacity="0"/>
    <g id="Icon_feather-user" data-name="Icon feather-user" transform="translate(270 596.5)">
      <path id="패스_79" data-name="패스 79" d="M24,26.5a4.272,4.272,0,0,0-4.5-4h-9a4.272,4.272,0,0,0-4.5,4" transform="translate(2 -3)" fill="none" stroke="#5c5c5c" stroke-linecap="round" stroke-linejoin="round" stroke-width="2"/>
      <g id="패스_80" data-name="패스 80" transform="translate(1 3)" fill="none" stroke-linecap="round" stroke-linejoin="round">
        <path d="M20,8.5a4,4,0,1,1-4-4A4,4,0,0,1,20,8.5Z" stroke="none"/>
        <path d="M 16 12.50000095367432 C 18.20914077758789 12.50000095367432 20 10.70914077758789 20 8.500000953674316 C 20 6.290861129760742 18.20914077758789 4.500000953674316 16 4.500000953674316 C 13.79086017608643 4.500000953674316 12 6.290861129760742 12 8.500000953674316 C 12 10.70914077758789 13.79086017608643 12.50000095367432 16 12.50000095367432 M 16 14.50000095367432 C 12.69159030914307 14.50000095367432 10 11.80841064453125 10 8.500000953674316 C 10 5.191590785980225 12.69159030914307 2.500000953674316 16 2.500000953674316 C 19.30841064453125 2.500000953674316 22 5.191590785980225 22 8.500000953674316 C 22 11.80841064453125 19.30841064453125 14.50000095367432 16 14.50000095367432 Z" stroke="none" fill="#5c5c5c"/>
      </g>
    </g>
  </g>
</svg>
