<svg xmlns="http://www.w3.org/2000/svg" xmlns:xlink="http://www.w3.org/1999/xlink" width="36" height="36" viewBox="0 0 36 36">
  <defs>
    <clipPath id="clip-path">
      <rect id="사각형_76" data-name="사각형 76" width="30.5" height="28.241" transform="translate(0 0)" fill="none"/>
    </clipPath>
  </defs>
  <g id="그룹_37" data-name="그룹 37" transform="translate(-834 -453)">
    <rect id="사각형_79" data-name="사각형 79" width="36" height="36" transform="translate(834 453)" fill="rgba(255,0,0,0.2)" opacity="0"/>
    <g id="그룹_35" data-name="그룹 35" transform="translate(836.25 456.879)">
      <g id="그룹_34" data-name="그룹 34" transform="translate(0 0)" clip-path="url(#clip-path)">
        <path id="패스_71" data-name="패스 71" d="M15.248,0C6.824,0,0,5.4,0,12.075c0,4.291,2.828,8.052,7.075,10.2L5.637,27.653a.433.433,0,0,0,.687.483L12.5,23.954a19.37,19.37,0,0,0,2.745.2c8.42,0,15.252-5.4,15.252-12.079S23.668,0,15.248,0" transform="translate(0 0)" fill="#2b1718"/>
        <path id="패스_72" data-name="패스 72" d="M12.192,31.344H10.531a1.116,1.116,0,0,1-.59-.156.657.657,0,0,1-.3-.45c-.01-.05-.018-.11-.024-.169A.674.674,0,0,1,9.876,30a1.032,1.032,0,0,1,.651-.206h5.078a1.081,1.081,0,0,1,.585.156.673.673,0,0,1,.307.45.76.76,0,0,1,.014.167.689.689,0,0,1-.255.572,1.023,1.023,0,0,1-.649.2H13.949l-.006,5.734a.9.9,0,0,1-.241.663.836.836,0,0,1-.641.252.879.879,0,0,1-.561-.183.8.8,0,0,1-.295-.5,1.063,1.063,0,0,1-.016-.236Z" transform="translate(-6.843 -21.181)" fill="#ffe733"/>
        <path id="패스_73" data-name="패스 73" d="M28.981,29.863a.8.8,0,0,1,.321-.431,1.034,1.034,0,0,1,.54-.13h.42a1.1,1.1,0,0,1,.576.14.923.923,0,0,1,.363.534l2.119,6.159a3.677,3.677,0,0,1,.142.491,1.829,1.829,0,0,1,.032.212.774.774,0,0,1-.247.57.787.787,0,0,1-.586.233.749.749,0,0,1-.787-.5l-.454-1.34H28.593l-.454,1.34a.741.741,0,0,1-.791.5.812.812,0,0,1-.518-.162.742.742,0,0,1-.269-.453,1.085,1.085,0,0,1-.016-.188,1.141,1.141,0,0,1,.048-.325c.036-.125.076-.254.121-.377Zm1.062,1.43h-.02l-1.034,3.232h2.055Z" transform="translate(-18.89 -20.829)" fill="#ffe733"/>
        <path id="패스_74" data-name="패스 74" d="M51.58,30.217a.9.9,0,0,1,.241-.662.826.826,0,0,1,.641-.254.871.871,0,0,1,.562.184.832.832,0,0,1,.291.5.808.808,0,0,1,.018.23l0,5.736h2.935a1.01,1.01,0,0,1,.591.16.669.669,0,0,1,.3.446,1.042,1.042,0,0,1,.023.167.668.668,0,0,1-.26.569,1.024,1.024,0,0,1-.652.2H52.608a1.16,1.16,0,0,1-.661-.168.809.809,0,0,1-.33-.547,2.226,2.226,0,0,1-.042-.358Z" transform="translate(-36.703 -20.829)" fill="#ffe733"/>
        <path id="패스_75" data-name="패스 75" d="M71.635,30.217a.927.927,0,0,1,.239-.662.84.84,0,0,1,.643-.254.866.866,0,0,1,.56.184.833.833,0,0,1,.3.5,1,1,0,0,1,.018.23l0,2.666,2.757-3.18a2.22,2.22,0,0,1,.334-.3.679.679,0,0,1,.369-.1.9.9,0,0,1,.526.167.649.649,0,0,1,.289.427c0,.008.005.032.014.07a.282.282,0,0,0,.006.075.716.716,0,0,1-.084.332,1.48,1.48,0,0,1-.209.293l-1.8,1.978,2.135,3.387.064.1a1.949,1.949,0,0,1,.253.513.244.244,0,0,0,.012.052v.06a.8.8,0,0,1-.265.675,1.019,1.019,0,0,1-.635.205.886.886,0,0,1-.44-.1,1.107,1.107,0,0,1-.343-.385L74.35,33.9,73.388,34.9l.008,1.822a.935.935,0,0,1-.241.662.846.846,0,0,1-.645.252.9.9,0,0,1-.562-.183.808.808,0,0,1-.295-.5,1.029,1.029,0,0,1-.014-.236Z" transform="translate(-50.979 -20.829)" fill="#ffe733"/>
      </g>
    </g>
  </g>
</svg>
