<svg xmlns="http://www.w3.org/2000/svg" width="429" height="429" viewBox="0 0 429 429">
  <g id="logo" transform="translate(-357 -225)">
    <rect id="사각형_24" data-name="사각형 24" width="429" height="429" transform="translate(357 225)" fill="#fff" opacity="0"/>
    <g id="그룹_10" data-name="그룹 10" transform="translate(365.948 232.66)">
      <path id="패스_29" data-name="패스 29" d="M412.914,54.032V36.63A36.672,36.672,0,0,0,376.284,0h-17.7l-3.076,3.918h-.5L351.926,0H164.389L161.32,3.918h-.5L157.746,0H60.091L57.021,3.918h-.5L53.447,0H36.63A36.672,36.672,0,0,0,0,36.63V86.122L3.918,89.21V89.7L0,92.79v97.643l3.918,3.082V194L0,197.089V364.4l3.918,3.082v.492L0,371.043v5.247a36.666,36.666,0,0,0,36.63,36.618h73.961l3.082-3.894h.492l3.076,3.894h91.283l3.082-3.894h.486l3.088,3.894h125.09l3.076-3.894h.492l3.076,3.894h29.372a36.666,36.666,0,0,0,36.63-36.618V359.172L409,356.1v-.5l3.912-3.076V338.941L409,335.865v-.492l3.912-3.076V60.687L409,57.6v-.492Z" transform="translate(0 0)" fill="#dc000c"/>
      <path id="패스_30" data-name="패스 30" d="M52.853,90.09H67.327a3.15,3.15,0,0,0,3.149-3.162V49.3H87V86.928a3.154,3.154,0,0,0,3.149,3.162h14.467a3.145,3.145,0,0,0,3.143-3.162V62.785l-4-3.112V59.18l4-3.112V8.242a3.142,3.142,0,0,0-3.143-3.149H90.154A3.152,3.152,0,0,0,87,8.242V30.62H70.476V8.242a3.148,3.148,0,0,0-3.149-3.149H52.853A3.15,3.15,0,0,0,49.71,8.242V22.488l3.937,3.088v.492L49.71,29.156V86.928a3.153,3.153,0,0,0,3.143,3.162" transform="translate(256.064 26.235)" fill="#fff"/>
      <path id="패스_31" data-name="패스 31" d="M83.088,20.026a39,39,0,0,0-20.982,6.083l.265,5.222-.394.289-5.056-1.55A36.572,36.572,0,0,0,44.693,57.265c0,20.569,17.18,37.245,38.4,37.245a39.948,39.948,0,0,0,8.722-1L93.724,89.2l.474-.148,3.863,2.516a37.251,37.251,0,0,0,23.43-34.3c0-20.551-17.192-37.239-38.4-37.239m0,54.653c-9.922,0-17.961-7.793-17.961-17.414a17.97,17.97,0,0,1,35.923,0c0,9.62-8.04,17.414-17.961,17.414" transform="translate(230.22 103.157)" fill="#fff"/>
      <path id="패스_32" data-name="패스 32" d="M51.275,83.678a3.143,3.143,0,0,0,2.8-1.716L75.744,39.95l23.3,42.406a3.127,3.127,0,0,0,2.8,1.7,2.97,2.97,0,0,0,1.439-.357l13.674-7.055a3.148,3.148,0,0,0,1.353-4.238L100.964,40.38l-5.118-.732-.228-.455,2.208-4.6L87.948,16.354l-1.907-3.678H86a11.137,11.137,0,0,0-20.4-.215h-.055l-2.011,3.894L50.2,42.17l2.356,4.638-.234.443L47.2,48,34.814,72a3.364,3.364,0,0,0-.246.634,3.16,3.16,0,0,0,1.6,3.617l13.674,7.074a3.24,3.24,0,0,0,1.433.351" transform="translate(177.517 30.376)" fill="#fff"/>
      <path id="패스_33" data-name="패스 33" d="M94.337,78.049H76.529V37.876a3.146,3.146,0,0,0-3.149-3.143H58.918a3.154,3.154,0,0,0-3.149,3.143V63.311l3.949,3.082V66.9l-3.949,3.088v121.9a3.146,3.146,0,0,0,3.149,3.143H73.38a3.138,3.138,0,0,0,3.149-3.143V162.714l-3.955-3.088v-.5l3.955-3.094V96.706H94.337a3.146,3.146,0,0,0,3.143-3.149V81.174a3.133,3.133,0,0,0-3.143-3.125" transform="translate(287.274 178.915)" fill="#fff"/>
      <path id="패스_34" data-name="패스 34" d="M120.038,81.3l-4.607-1.107-.228-.443,1.759-4.417-3.137-6.059L109.4,68.157l-.234-.443,1.636-4.281L102,46.418l-1.9-3.678h-.043a11.154,11.154,0,0,0-20.409-.215h-.055l-2.005,3.894L55.71,88.72l2.116,4.626-.221.443-4.958.861L35.891,127.042a3.158,3.158,0,0,0,1.353,4.238l13.674,7.068a3.107,3.107,0,0,0,1.439.351,3.16,3.16,0,0,0,2.8-1.7L89.793,70.02l34.071,65.86a3.115,3.115,0,0,0,2.793,1.7,3.042,3.042,0,0,0,1.439-.344l13.668-7.074a3.15,3.15,0,0,0,1.359-4.238Z" transform="translate(183.084 185.338)" fill="#fff"/>
      <path id="패스_35" data-name="패스 35" d="M11.085,65.807h98.548l3.057-3.869h.5l3.057,3.869h44.227a3.155,3.155,0,0,0,3.149-3.149V50.281a3.153,3.153,0,0,0-3.149-3.156H134.52V24.858h20.139A3.152,3.152,0,0,0,157.8,21.7V9.339A3.136,3.136,0,0,0,154.659,6.2H46.737l-3.076,3.906h-.5L40.094,6.2H16.9a3.134,3.134,0,0,0-3.137,3.137V21.7A3.15,3.15,0,0,0,16.9,24.858H37.037V47.126H11.085a3.148,3.148,0,0,0-3.143,3.156V62.657a3.15,3.15,0,0,0,3.143,3.149M57.8,24.858H113.76V47.119H57.8Z" transform="translate(40.91 31.947)" fill="#fff"/>
      <path id="패스_36" data-name="패스 36" d="M174.282,17.429c-.086,0-.172-.012-.258-.012H45.015l-3.1,3.967h-.492l-3.1-3.967H9.886a3.157,3.157,0,0,0-3.143,3.162V32.942a3.146,3.146,0,0,0,3.143,3.149H80.858V45.7H22.921a3.152,3.152,0,0,0-3.143,3.137V61.693l3.894,3.057v.5l-3.894,3.063v30.2a3.154,3.154,0,0,0,3.143,3.149h93.288l3.026-3.8h.5l3.033,3.8h38.223a3.154,3.154,0,0,0,3.143-3.149V48.837a3.152,3.152,0,0,0-3.143-3.137H103.064V36.092h36.23l3.076-3.918h.5l3.076,3.918h28.08a3.148,3.148,0,0,0,3.149-3.149V20.579a3.17,3.17,0,0,0-2.891-3.149M143.446,63.9V84.065H40.47V63.9H89.488L92.5,60.149h.486L96,63.9Z" transform="translate(34.734 89.718)" fill="#fff"/>
      <path id="패스_37" data-name="패스 37" d="M11.085,77.206a3.136,3.136,0,0,0-3.143,3.137V92.719a3.153,3.153,0,0,0,3.143,3.162h98.548L112.69,92h.5l3.057,3.881h44.227a3.158,3.158,0,0,0,3.149-3.162V80.343a3.141,3.141,0,0,0-3.149-3.137H150.144l-3.088,3.955h-.5l-3.1-3.955H134.52V54.933h20.139a3.148,3.148,0,0,0,3.143-3.156V39.413a3.15,3.15,0,0,0-3.143-3.149H131.992l-3.076,3.906h-.492l-3.076-3.906H46.737L43.662,40.17h-.5l-3.069-3.906H16.9a3.149,3.149,0,0,0-3.137,3.149V51.777A3.146,3.146,0,0,0,16.9,54.933H37.037V77.206ZM57.8,54.933H113.76V77.206H57.8Z" transform="translate(40.91 186.801)" fill="#fff"/>
      <path id="패스_38" data-name="패스 38" d="M174.282,47.5a1.885,1.885,0,0,0-.258-.018H39.516l-3.1,3.955h-.492L32.83,47.481H9.88A3.149,3.149,0,0,0,6.743,50.63V63.013A3.156,3.156,0,0,0,9.88,66.156H80.858v9.6H22.921a3.159,3.159,0,0,0-3.143,3.156V91.751l3.894,3.063V95.3l-3.894,3.069v30.2a3.153,3.153,0,0,0,3.143,3.143H76.608l3.039-3.8h.492l3.026,3.8h77.824a3.153,3.153,0,0,0,3.143-3.143V111.754l-3.888-3.069v-.48l3.888-3.069V78.907a3.159,3.159,0,0,0-3.143-3.156H103.064v-9.6h36.23l3.076-3.912h.5l3.076,3.912h28.08a3.158,3.158,0,0,0,3.149-3.143V50.63a3.144,3.144,0,0,0-2.891-3.131m-30.836,66.629H40.47V93.965H143.446Z" transform="translate(34.734 244.582)" fill="#fff"/>
    </g>
  </g>
</svg>
